# xmcd
#
# Track frame offsets:
#	150
#	16229
#	41903
#	58343
#	68394
#	85696
#	100880
#	126097
#	144978
#	171277
#	189880
#	204619
#	220450
#	243161
#	264025
#	296710
#
# Disc length: 4212 seconds
#
# Revision: 1
# Processed by: cddbd v1.5.2PL0 Copyright (c) Steve Scherf et al.
# Submitted via: audiograbber 1.83.01
#
DISCID=e2107210
DTITLE=Conor Oberst and The Mystic River Band - Outer South
DYEAR=2009
DGENRE=
TTITLE0=Slowly (Oh So Slowly)
TTITLE1=To all the Lights in the Windows
TTITLE2=Big Black Nothing
TTITLE3=Air Mattress
TTITLE4=Cabbage Town
TTITLE5=Ten Women
TTITLE6=Difference is Time
TTITLE7=Nikorette
TTITLE8=White Shoes
TTITLE9=Bloodline
TTITLE10=Spoiled
TTITLE11=Worldwide
TTITLE12=Roosevelt Room
TTITLE13=Eagle on a Pole
TTITLE14=I got The Reason #2
TTITLE15=Snake Hill
EXTD=
EXTT0=
EXTT1=
EXTT2=
EXTT3=
EXTT4=
EXTT5=
EXTT6=
EXTT7=
EXTT8=
EXTT9=
EXTT10=
EXTT11=
EXTT12=
EXTT13=
EXTT14=
EXTT15=
PLAYORDER=
